<svg width="176" height="30" viewBox="0 0 176 30" fill="none" xmlns="http://www.w3.org/2000/svg">
<path d="M13.8821 1.559C13.9501 1.39367 14.0659 1.25223 14.2147 1.15269C14.3635 1.05315 14.5387 1 14.7179 1C14.8972 1 15.0723 1.05315 15.2212 1.15269C15.37 1.25223 15.4858 1.39367 15.5538 1.559L18.9695 9.74947C19.0334 9.90273 19.1385 10.0354 19.2732 10.133C19.408 10.2305 19.567 10.2891 19.733 10.3023L28.6026 11.0107C29.4047 11.0748 29.7294 12.0731 29.1186 12.5939L22.3611 18.3662C22.2348 18.4739 22.1408 18.6141 22.0892 18.7716C22.0376 18.929 22.0304 19.0976 22.0685 19.2588L24.134 27.8884C24.1756 28.0615 24.1647 28.243 24.1028 28.41C24.0409 28.577 23.9307 28.7219 23.7863 28.8265C23.6418 28.9311 23.4694 28.9907 23.291 28.9977C23.1126 29.0047 22.9361 28.9589 22.7838 28.8659L15.1889 24.2427C15.0471 24.1563 14.8841 24.1106 14.7179 24.1106C14.5518 24.1106 14.3888 24.1563 14.247 24.2427L6.65205 28.8675C6.49976 28.9605 6.32327 29.0063 6.14485 28.9993C5.96644 28.9923 5.79411 28.9327 5.64963 28.8281C5.50515 28.7235 5.39501 28.5786 5.33311 28.4116C5.27121 28.2446 5.26033 28.0631 5.30184 27.89L7.36734 19.2588C7.40565 19.0976 7.39861 18.929 7.34699 18.7715C7.29538 18.614 7.20119 18.4738 7.0748 18.3662L0.317321 12.5939C0.181244 12.4783 0.0826533 12.325 0.0340344 12.1534C-0.0145845 11.9819 -0.0110437 11.7998 0.0442081 11.6303C0.0994599 11.4607 0.203937 11.3113 0.344408 11.201C0.484879 11.0907 0.655024 11.0245 0.833294 11.0107L9.70288 10.3023C9.86884 10.2891 10.0279 10.2305 10.1626 10.133C10.2973 10.0354 10.4025 9.90273 10.4664 9.74947L13.8821 1.559Z" fill="#222222"/>
<path d="M50.3181 1.559C50.3861 1.39367 50.5019 1.25223 50.6507 1.15269C50.7996 1.05315 50.9748 1 51.154 1C51.3332 1 51.5084 1.05315 51.6572 1.15269C51.8061 1.25223 51.9218 1.39367 51.9898 1.559L55.4055 9.74947C55.4695 9.90273 55.5746 10.0354 55.7093 10.133C55.844 10.2305 56.0031 10.2891 56.169 10.3023L65.0386 11.0107C65.8407 11.0748 66.1654 12.0731 65.5546 12.5939L58.7971 18.3662C58.6709 18.4739 58.5768 18.6141 58.5252 18.7716C58.4736 18.929 58.4665 19.0976 58.5046 19.2588L60.5701 27.8884C60.6116 28.0615 60.6007 28.243 60.5388 28.41C60.4769 28.577 60.3668 28.7219 60.2223 28.8265C60.0778 28.9311 59.9055 28.9907 59.7271 28.9977C59.5487 29.0047 59.3722 28.9589 59.2199 28.8659L51.6249 24.2427C51.4831 24.1563 51.3202 24.1106 51.154 24.1106C50.9878 24.1106 50.8248 24.1563 50.683 24.2427L43.0881 28.8675C42.9358 28.9605 42.7593 29.0063 42.5809 28.9993C42.4025 28.9923 42.2301 28.9327 42.0857 28.8281C41.9412 28.7235 41.831 28.5786 41.7691 28.4116C41.7072 28.2446 41.6964 28.0631 41.7379 27.89L43.8034 19.2588C43.8417 19.0976 43.8346 18.929 43.783 18.7715C43.7314 18.614 43.6372 18.4738 43.5108 18.3662L36.7534 12.5939C36.6173 12.4783 36.5187 12.325 36.4701 12.1534C36.4215 11.9819 36.425 11.7998 36.4802 11.6303C36.5355 11.4607 36.64 11.3113 36.7804 11.201C36.9209 11.0907 37.0911 11.0245 37.2693 11.0107L46.1389 10.3023C46.3049 10.2891 46.464 10.2305 46.5987 10.133C46.7334 10.0354 46.8385 9.90273 46.9024 9.74947L50.3181 1.559Z" fill="#222222"/>
<path d="M86.7537 1.559C86.8217 1.39367 86.9374 1.25223 87.0863 1.15269C87.2351 1.05315 87.4103 1 87.5895 1C87.7688 1 87.9439 1.05315 88.0928 1.15269C88.2416 1.25223 88.3574 1.39367 88.4254 1.559L91.8411 9.74947C91.905 9.90273 92.0101 10.0354 92.1448 10.133C92.2795 10.2305 92.4386 10.2891 92.6046 10.3023L101.474 11.0107C102.276 11.0748 102.601 12.0731 101.99 12.5939L95.2327 18.3662C95.1064 18.4739 95.0123 18.6141 94.9607 18.7716C94.9091 18.929 94.902 19.0976 94.9401 19.2588L97.0056 27.8884C97.0471 28.0615 97.0363 28.243 96.9744 28.41C96.9125 28.577 96.8023 28.7219 96.6578 28.8265C96.5134 28.9311 96.341 28.9907 96.1626 28.9977C95.9842 29.0047 95.8077 28.9589 95.6554 28.8659L88.0605 24.2427C87.9187 24.1563 87.7557 24.1106 87.5895 24.1106C87.4233 24.1106 87.2604 24.1563 87.1186 24.2427L79.5236 28.8675C79.3713 28.9605 79.1948 29.0063 79.0164 28.9993C78.838 28.9923 78.6657 28.9327 78.5212 28.8281C78.3767 28.7235 78.2666 28.5786 78.2047 28.4116C78.1428 28.2446 78.1319 28.0631 78.1734 27.89L80.2389 19.2588C80.2772 19.0976 80.2702 18.929 80.2186 18.7715C80.167 18.614 80.0728 18.4738 79.9464 18.3662L73.1889 12.5939C73.0528 12.4783 72.9542 12.325 72.9056 12.1534C72.857 11.9819 72.8605 11.7998 72.9158 11.6303C72.971 11.4607 73.0755 11.3113 73.216 11.201C73.3565 11.0907 73.5266 11.0245 73.7049 11.0107L82.5745 10.3023C82.7404 10.2891 82.8995 10.2305 83.0342 10.133C83.1689 10.0354 83.274 9.90273 83.338 9.74947L86.7537 1.559Z" fill="#222222"/>
<path d="M123.19 1.559C123.258 1.39367 123.373 1.25223 123.522 1.15269C123.671 1.05315 123.846 1 124.026 1C124.205 1 124.38 1.05315 124.529 1.15269C124.678 1.25223 124.793 1.39367 124.861 1.559L128.277 9.74947C128.341 9.90273 128.446 10.0354 128.581 10.133C128.716 10.2305 128.875 10.2891 129.041 10.3023L137.91 11.0107C138.712 11.0748 139.037 12.0731 138.426 12.5939L131.669 18.3662C131.542 18.4739 131.448 18.6141 131.397 18.7716C131.345 18.929 131.338 19.0976 131.376 19.2588L133.442 27.8884C133.483 28.0615 133.472 28.243 133.41 28.41C133.348 28.577 133.238 28.7219 133.094 28.8265C132.949 28.9311 132.777 28.9907 132.599 28.9977C132.42 29.0047 132.244 28.9589 132.091 28.8659L124.497 24.2427C124.355 24.1563 124.192 24.1106 124.026 24.1106C123.859 24.1106 123.696 24.1563 123.555 24.2427L115.96 28.8675C115.807 28.9605 115.631 29.0063 115.452 28.9993C115.274 28.9923 115.102 28.9327 114.957 28.8281C114.813 28.7235 114.703 28.5786 114.641 28.4116C114.579 28.2446 114.568 28.0631 114.609 27.89L116.675 19.2588C116.713 19.0976 116.706 18.929 116.655 18.7715C116.603 18.614 116.509 18.4738 116.382 18.3662L109.625 12.5939C109.489 12.4783 109.39 12.325 109.342 12.1534C109.293 11.9819 109.297 11.7998 109.352 11.6303C109.407 11.4607 109.512 11.3113 109.652 11.201C109.792 11.0907 109.963 11.0245 110.141 11.0107L119.01 10.3023C119.176 10.2891 119.336 10.2305 119.47 10.133C119.605 10.0354 119.71 9.90273 119.774 9.74947L123.19 1.559Z" fill="#222222"/>
<path d="M159.626 1.559C159.694 1.39367 159.81 1.25223 159.958 1.15269C160.107 1.05315 160.282 1 160.462 1C160.641 1 160.816 1.05315 160.965 1.15269C161.114 1.25223 161.229 1.39367 161.297 1.559L164.713 9.74947C164.777 9.90273 164.882 10.0354 165.017 10.133C165.152 10.2305 165.311 10.2891 165.477 10.3023L174.346 11.0107C175.148 11.0748 175.473 12.0731 174.862 12.5939L168.105 18.3662C167.978 18.4739 167.884 18.6141 167.833 18.7716C167.781 18.929 167.774 19.0976 167.812 19.2588L169.878 27.8884C169.919 28.0615 169.908 28.243 169.846 28.41C169.785 28.577 169.674 28.7219 169.53 28.8265C169.385 28.9311 169.213 28.9907 169.035 28.9977C168.856 29.0047 168.68 28.9589 168.527 28.8659L160.933 24.2427C160.791 24.1563 160.628 24.1106 160.462 24.1106C160.295 24.1106 160.132 24.1563 159.991 24.2427L152.396 28.8675C152.243 28.9605 152.067 29.0063 151.889 28.9993C151.71 28.9923 151.538 28.9327 151.393 28.8281C151.249 28.7235 151.139 28.5786 151.077 28.4116C151.015 28.2446 151.004 28.0631 151.045 27.89L153.111 19.2588C153.149 19.0976 153.142 18.929 153.091 18.7715C153.039 18.614 152.945 18.4738 152.818 18.3662L146.061 12.5939C145.925 12.4783 145.826 12.325 145.778 12.1534C145.729 11.9819 145.733 11.7998 145.788 11.6303C145.843 11.4607 145.948 11.3113 146.088 11.201C146.229 11.0907 146.399 11.0245 146.577 11.0107L155.447 10.3023C155.612 10.2891 155.772 10.2305 155.906 10.133C156.041 10.0354 156.146 9.90273 156.21 9.74947L159.626 1.559Z" stroke="#222222" stroke-width="1.07692" stroke-linecap="round" stroke-linejoin="round"/>
<g clip-path="url(#clip0_97_4129)">
<path d="M159.882 1.559C159.95 1.39367 160.066 1.25223 160.215 1.15269C160.364 1.05315 160.539 1 160.718 1C160.897 1 161.072 1.05315 161.221 1.15269C161.37 1.25223 161.486 1.39367 161.554 1.559L164.969 9.74947C165.033 9.90273 165.139 10.0354 165.273 10.133C165.408 10.2305 165.567 10.2891 165.733 10.3023L174.603 11.0107C175.405 11.0748 175.729 12.0731 175.119 12.5939L168.361 18.3662C168.235 18.4739 168.141 18.6141 168.089 18.7716C168.038 18.929 168.03 19.0976 168.069 19.2588L170.134 27.8884C170.176 28.0615 170.165 28.243 170.103 28.41C170.041 28.577 169.931 28.7219 169.786 28.8265C169.642 28.9311 169.469 28.9907 169.291 28.9977C169.113 29.0047 168.936 28.9589 168.784 28.8659L161.189 24.2427C161.047 24.1563 160.884 24.1106 160.718 24.1106C160.552 24.1106 160.389 24.1563 160.247 24.2427L152.652 28.8675C152.5 28.9605 152.323 29.0063 152.145 28.9993C151.966 28.9923 151.794 28.9327 151.65 28.8281C151.505 28.7235 151.395 28.5786 151.333 28.4116C151.271 28.2446 151.26 28.0631 151.302 27.89L153.367 19.2588C153.406 19.0976 153.399 18.929 153.347 18.7715C153.295 18.614 153.201 18.4738 153.075 18.3662L146.317 12.5939C146.181 12.4783 146.083 12.325 146.034 12.1534C145.985 11.9819 145.989 11.7998 146.044 11.6303C146.099 11.4607 146.204 11.3113 146.344 11.201C146.485 11.0907 146.655 11.0245 146.833 11.0107L155.703 10.3023C155.869 10.2891 156.028 10.2305 156.163 10.133C156.297 10.0354 156.402 9.90273 156.466 9.74947L159.882 1.559Z" fill="#222222"/>
</g>
<defs>
<clipPath id="clip0_97_4129">
<rect width="15" height="28" fill="white" transform="translate(146 1)"/>
</clipPath>
</defs>
</svg>
