<svg width="177" height="30" viewBox="0 0 177 30" fill="none" xmlns="http://www.w3.org/2000/svg">
<path d="M14.2923 1.559C14.3602 1.39367 14.476 1.25223 14.6249 1.15269C14.7737 1.05315 14.9489 1 15.1281 1C15.3073 1 15.4825 1.05315 15.6313 1.15269C15.7802 1.25223 15.896 1.39367 15.9639 1.559L19.3797 9.74947C19.4436 9.90273 19.5487 10.0354 19.6834 10.133C19.8181 10.2305 19.9772 10.2891 20.1432 10.3023L29.0127 11.0107C29.8148 11.0748 30.1395 12.0731 29.5287 12.5939L22.7712 18.3662C22.645 18.4739 22.5509 18.6141 22.4993 18.7716C22.4477 18.929 22.4406 19.0976 22.4787 19.2588L24.5442 27.8884C24.5857 28.0615 24.5748 28.243 24.5129 28.41C24.451 28.577 24.3409 28.7219 24.1964 28.8265C24.0519 28.9311 23.8796 28.9907 23.7012 28.9977C23.5228 29.0047 23.3463 28.9589 23.194 28.8659L15.5991 24.2427C15.4573 24.1563 15.2943 24.1106 15.1281 24.1106C14.9619 24.1106 14.7989 24.1563 14.6571 24.2427L7.06221 28.8675C6.90992 28.9605 6.73342 29.0063 6.55501 28.9993C6.37659 28.9923 6.20426 28.9327 6.05979 28.8281C5.91531 28.7235 5.80517 28.5786 5.74327 28.4116C5.68137 28.2446 5.67049 28.0631 5.712 27.89L7.7775 19.2588C7.8158 19.0976 7.80876 18.929 7.75715 18.7715C7.70553 18.614 7.61135 18.4738 7.48495 18.3662L0.727478 12.5939C0.591401 12.4783 0.49281 12.325 0.444191 12.1534C0.395572 11.9819 0.399113 11.7998 0.454364 11.6303C0.509616 11.4607 0.614093 11.3113 0.754564 11.201C0.895035 11.0907 1.06518 11.0245 1.24345 11.0107L10.113 10.3023C10.279 10.2891 10.4381 10.2305 10.5728 10.133C10.7075 10.0354 10.8126 9.90273 10.8765 9.74947L14.2923 1.559Z" fill="#F2F2F2"/>
<path d="M50.7283 1.559C50.7963 1.39367 50.9121 1.25223 51.0609 1.15269C51.2097 1.05315 51.3849 1 51.5641 1C51.7434 1 51.9185 1.05315 52.0674 1.15269C52.2162 1.25223 52.332 1.39367 52.4 1.559L55.8157 9.74947C55.8796 9.90273 55.9847 10.0354 56.1194 10.133C56.2541 10.2305 56.4132 10.2891 56.5792 10.3023L65.4488 11.0107C66.2509 11.0748 66.5756 12.0731 65.9648 12.5939L59.2073 18.3662C59.081 18.4739 58.9869 18.6141 58.9353 18.7716C58.8837 18.929 58.8766 19.0976 58.9147 19.2588L60.9802 27.8884C61.0217 28.0615 61.0109 28.243 60.949 28.41C60.8871 28.577 60.7769 28.7219 60.6324 28.8265C60.488 28.9311 60.3156 28.9907 60.1372 28.9977C59.9588 29.0047 59.7823 28.9589 59.63 28.8659L52.0351 24.2427C51.8933 24.1563 51.7303 24.1106 51.5641 24.1106C51.3979 24.1106 51.235 24.1563 51.0932 24.2427L43.4982 28.8675C43.346 28.9605 43.1695 29.0063 42.991 28.9993C42.8126 28.9923 42.6403 28.9327 42.4958 28.8281C42.3513 28.7235 42.2412 28.5786 42.1793 28.4116C42.1174 28.2446 42.1065 28.0631 42.148 27.89L44.2135 19.2588C44.2518 19.0976 44.2448 18.929 44.1932 18.7715C44.1416 18.614 44.0474 18.4738 43.921 18.3662L37.1635 12.5939C37.0274 12.4783 36.9288 12.325 36.8802 12.1534C36.8316 11.9819 36.8351 11.7998 36.8904 11.6303C36.9457 11.4607 37.0501 11.3113 37.1906 11.201C37.3311 11.0907 37.5012 11.0245 37.6795 11.0107L46.5491 10.3023C46.715 10.2891 46.8741 10.2305 47.0088 10.133C47.1435 10.0354 47.2486 9.90273 47.3126 9.74947L50.7283 1.559Z" fill="#F2F2F2"/>
<path d="M87.1638 1.559C87.2318 1.39367 87.3476 1.25223 87.4964 1.15269C87.6453 1.05315 87.8205 1 87.9997 1C88.1789 1 88.3541 1.05315 88.5029 1.15269C88.6518 1.25223 88.7675 1.39367 88.8355 1.559L92.2512 9.74947C92.3152 9.90273 92.4203 10.0354 92.555 10.133C92.6897 10.2305 92.8488 10.2891 93.0147 10.3023L101.884 11.0107C102.686 11.0748 103.011 12.0731 102.4 12.5939L95.6428 18.3662C95.5166 18.4739 95.4225 18.6141 95.3709 18.7716C95.3193 18.929 95.3122 19.0976 95.3503 19.2588L97.4158 27.8884C97.4573 28.0615 97.4464 28.243 97.3845 28.41C97.3226 28.577 97.2125 28.7219 97.068 28.8265C96.9235 28.9311 96.7512 28.9907 96.5728 28.9977C96.3944 29.0047 96.2179 28.9589 96.0656 28.8659L88.4706 24.2427C88.3288 24.1563 88.1659 24.1106 87.9997 24.1106C87.8335 24.1106 87.6705 24.1563 87.5287 24.2427L79.9338 28.8675C79.7815 28.9605 79.605 29.0063 79.4266 28.9993C79.2482 28.9923 79.0758 28.9327 78.9314 28.8281C78.7869 28.7235 78.6767 28.5786 78.6148 28.4116C78.5529 28.2446 78.5421 28.0631 78.5836 27.89L80.6491 19.2588C80.6874 19.0976 80.6803 18.929 80.6287 18.7715C80.5771 18.614 80.4829 18.4738 80.3565 18.3662L73.5991 12.5939C73.463 12.4783 73.3644 12.325 73.3158 12.1534C73.2672 11.9819 73.2707 11.7998 73.3259 11.6303C73.3812 11.4607 73.4857 11.3113 73.6261 11.201C73.7666 11.0907 73.9368 11.0245 74.115 11.0107L82.9846 10.3023C83.1506 10.2891 83.3097 10.2305 83.4444 10.133C83.5791 10.0354 83.6842 9.90273 83.7481 9.74947L87.1638 1.559Z" fill="#F2F2F2"/>
<path d="M123.6 1.559C123.668 1.39367 123.784 1.25223 123.932 1.15269C124.081 1.05315 124.256 1 124.436 1C124.615 1 124.79 1.05315 124.939 1.15269C125.088 1.25223 125.204 1.39367 125.272 1.559L128.687 9.74947C128.751 9.90273 128.856 10.0354 128.991 10.133C129.126 10.2305 129.285 10.2891 129.451 10.3023L138.32 11.0107C139.122 11.0748 139.447 12.0731 138.836 12.5939L132.079 18.3662C131.953 18.4739 131.859 18.6141 131.807 18.7716C131.755 18.929 131.748 19.0976 131.786 19.2588L133.852 27.8884C133.893 28.0615 133.882 28.243 133.821 28.41C133.759 28.577 133.649 28.7219 133.504 28.8265C133.36 28.9311 133.187 28.9907 133.009 28.9977C132.83 29.0047 132.654 28.9589 132.502 28.8659L124.907 24.2427C124.765 24.1563 124.602 24.1106 124.436 24.1106C124.27 24.1106 124.107 24.1563 123.965 24.2427L116.37 28.8675C116.218 28.9605 116.041 29.0063 115.863 28.9993C115.684 28.9923 115.512 28.9327 115.367 28.8281C115.223 28.7235 115.113 28.5786 115.051 28.4116C114.989 28.2446 114.978 28.0631 115.02 27.89L117.085 19.2588C117.123 19.0976 117.116 18.929 117.065 18.7715C117.013 18.614 116.919 18.4738 116.793 18.3662L110.035 12.5939C109.899 12.4783 109.8 12.325 109.752 12.1534C109.703 11.9819 109.707 11.7998 109.762 11.6303C109.817 11.4607 109.922 11.3113 110.062 11.201C110.203 11.0907 110.373 11.0245 110.551 11.0107L119.421 10.3023C119.587 10.2891 119.746 10.2305 119.88 10.133C120.015 10.0354 120.12 9.90273 120.184 9.74947L123.6 1.559Z" fill="#F2F2F2"/>
<path d="M160.036 1.559C160.104 1.39367 160.22 1.25223 160.369 1.15269C160.517 1.05315 160.693 1 160.872 1C161.051 1 161.226 1.05315 161.375 1.15269C161.524 1.25223 161.64 1.39367 161.708 1.559L165.123 9.74947C165.187 9.90273 165.292 10.0354 165.427 10.133C165.562 10.2305 165.721 10.2891 165.887 10.3023L174.756 11.0107C175.558 11.0748 175.883 12.0731 175.272 12.5939L168.515 18.3662C168.389 18.4739 168.295 18.6141 168.243 18.7716C168.191 18.929 168.184 19.0976 168.222 19.2588L170.288 27.8884C170.329 28.0615 170.318 28.243 170.257 28.41C170.195 28.577 170.085 28.7219 169.94 28.8265C169.796 28.9311 169.623 28.9907 169.445 28.9977C169.266 29.0047 169.09 28.9589 168.938 28.8659L161.343 24.2427C161.201 24.1563 161.038 24.1106 160.872 24.1106C160.706 24.1106 160.543 24.1563 160.401 24.2427L152.806 28.8675C152.654 28.9605 152.477 29.0063 152.299 28.9993C152.12 28.9923 151.948 28.9327 151.803 28.8281C151.659 28.7235 151.549 28.5786 151.487 28.4116C151.425 28.2446 151.414 28.0631 151.456 27.89L153.521 19.2588C153.559 19.0976 153.552 18.929 153.501 18.7715C153.449 18.614 153.355 18.4738 153.229 18.3662L146.471 12.5939C146.335 12.4783 146.236 12.325 146.188 12.1534C146.139 11.9819 146.143 11.7998 146.198 11.6303C146.253 11.4607 146.358 11.3113 146.498 11.201C146.639 11.0907 146.809 11.0245 146.987 11.0107L155.857 10.3023C156.023 10.2891 156.182 10.2305 156.316 10.133C156.451 10.0354 156.556 9.90273 156.62 9.74947L160.036 1.559Z" stroke="#F2F2F2" stroke-width="1.07692" stroke-linecap="round" stroke-linejoin="round"/>
</svg>
