<svg width="96" height="18" viewBox="0 0 96 18" fill="none" xmlns="http://www.w3.org/2000/svg">
<g opacity="0.5" clip-path="url(#clip0_97_2567)">
<path d="M8.91413 11.5825H4.27033L3.52732 13.7516H0.0639343L4.82159 1.2583H8.36886L13.1265 13.7576H9.66313L8.92012 11.5885L8.91413 11.5825ZM8.05128 9.11383L6.59522 4.95537L5.13917 9.11383H8.05728H8.05128Z" fill="#F8F8F8"/>
<path d="M15.7091 0V6.09987C16.4162 5.35686 17.303 4.99134 18.3636 4.99134C18.9927 4.99134 19.568 5.11118 20.0953 5.34487C20.6226 5.58455 21.066 5.90213 21.4375 6.3036C21.809 6.70506 22.0966 7.18442 22.3063 7.72969C22.516 8.27497 22.6239 8.86218 22.6239 9.47936C22.6239 10.0965 22.516 10.7017 22.3003 11.253C22.0846 11.8043 21.785 12.2836 21.3955 12.6971C21.006 13.1045 20.5506 13.4281 20.0293 13.6678C19.502 13.9075 18.9388 14.0213 18.3276 14.0213C17.2251 14.0213 16.3502 13.6198 15.7091 12.8109V13.7577H12.7071V0H15.7091ZM19.4841 9.5273C19.4841 9.26365 19.4361 9.01198 19.3343 8.7723C19.2324 8.53262 19.0946 8.32889 18.9208 8.14913C18.7411 7.97537 18.5373 7.83156 18.3096 7.7237C18.0759 7.61585 17.8243 7.56791 17.5487 7.56791C17.273 7.56791 17.0333 7.61585 16.8056 7.71771C16.572 7.81957 16.3742 7.95739 16.2004 8.13116C16.0267 8.31092 15.8889 8.51465 15.787 8.75433C15.6791 8.99401 15.6312 9.24567 15.6312 9.50932C15.6312 9.77297 15.6791 10.0246 15.781 10.2523C15.8829 10.486 16.0207 10.6838 16.1945 10.8575C16.3682 11.0313 16.5779 11.1691 16.8176 11.271C17.0573 11.3788 17.309 11.4268 17.5726 11.4268C17.8363 11.4268 18.0879 11.3788 18.3156 11.277C18.5493 11.1751 18.7471 11.0373 18.9208 10.8635C19.0946 10.6897 19.2324 10.48 19.3343 10.2523C19.4421 10.0186 19.4901 9.77896 19.4901 9.5213L19.4841 9.5273Z" fill="#F8F8F8"/>
<path d="M22.2883 9.43151C22.2883 8.80235 22.4141 8.21513 22.6717 7.66387C22.9234 7.11859 23.2769 6.63923 23.7323 6.23777C24.1877 5.8363 24.721 5.51872 25.3502 5.28504C25.9733 5.05135 26.6564 4.9375 27.3994 4.9375C28.1424 4.9375 28.8076 5.05135 29.4307 5.27905C30.0539 5.50674 30.5992 5.81833 31.0546 6.22578C31.51 6.62725 31.8695 7.1126 32.1211 7.66986C32.3728 8.22711 32.5046 8.84429 32.5046 9.5154C32.5046 10.1865 32.3728 10.8037 32.1152 11.3609C31.8575 11.9182 31.498 12.3976 31.0486 12.805C30.5932 13.2065 30.0539 13.5181 29.4187 13.7398C28.7836 13.9615 28.0945 14.0693 27.3575 14.0693C26.6205 14.0693 25.9554 13.9615 25.3382 13.7398C24.721 13.5181 24.1877 13.2065 23.7383 12.793C23.2889 12.3856 22.9414 11.8942 22.6837 11.325C22.4321 10.7557 22.3002 10.1206 22.3002 9.42552L22.2883 9.43151ZM25.458 9.46147C25.458 9.74908 25.512 10.0127 25.6138 10.2464C25.7217 10.4861 25.8595 10.6898 26.0273 10.8696C26.201 11.0494 26.4048 11.1872 26.6385 11.283C26.8781 11.3849 27.1298 11.4328 27.3934 11.4328C27.6571 11.4328 27.9088 11.3849 28.1484 11.283C28.3881 11.1812 28.5918 11.0434 28.7596 10.8696C28.9334 10.6958 29.0712 10.4861 29.1731 10.2464C29.2809 10.0067 29.3289 9.74908 29.3289 9.47345C29.3289 9.19782 29.2749 8.95814 29.1731 8.71846C29.0652 8.47878 28.9274 8.27505 28.7596 8.09529C28.5859 7.92152 28.3821 7.77771 28.1484 7.68184C27.9088 7.57998 27.6571 7.53204 27.3934 7.53204C27.1298 7.53204 26.8781 7.57998 26.6385 7.68184C26.3988 7.7837 26.195 7.92152 26.0273 8.09529C25.8535 8.26906 25.7157 8.47878 25.6138 8.70647C25.506 8.94016 25.458 9.18584 25.458 9.44948V9.46147Z" fill="#F8F8F8"/>
<path d="M35.1471 5.25488V10.0425C35.1471 11.0911 35.6565 11.6184 36.6691 11.6184C37.6818 11.6184 38.1911 11.0911 38.1911 10.0425V5.25488H41.1931V10.6237C41.1931 11.7742 40.8156 12.637 40.0606 13.2123C39.3056 13.7875 38.1731 14.0751 36.6691 14.0751C35.1651 14.0751 34.0386 13.7875 33.2776 13.2123C32.5226 12.637 32.1451 11.7742 32.1451 10.6237V5.25488H35.1471Z" fill="#F8F8F8"/>
<path d="M45.1957 7.75989V13.7579H42.1937V7.75989H41.1991V5.25523H42.1937V2.70264H45.1957V5.25523H46.9035V7.75989H45.1957Z" fill="#F8F8F8"/>
<path d="M54.9508 4.00863V13.7516H51.7031V4.00863H49.0367V1.2583H57.6232V4.00863H54.9568H54.9508Z" fill="#F8F8F8"/>
<path d="M55.3582 9.43151C55.3582 8.80235 55.484 8.21513 55.7417 7.66387C55.9934 7.11859 56.3469 6.63923 56.8023 6.23777C57.2577 5.8363 57.791 5.51872 58.4201 5.28504C59.0433 5.05135 59.7264 4.9375 60.4694 4.9375C61.2124 4.9375 61.8775 5.05135 62.5007 5.27905C63.1238 5.50674 63.6691 5.81833 64.1245 6.22578C64.5799 6.62725 64.9394 7.1126 65.1911 7.66986C65.4428 8.22711 65.5746 8.84429 65.5746 9.5154C65.5746 10.1865 65.4428 10.8037 65.1851 11.3609C64.9274 11.9182 64.5679 12.3976 64.1185 12.805C63.6631 13.2065 63.1238 13.5181 62.4887 13.7398C61.8535 13.9615 61.1645 14.0693 60.4274 14.0693C59.6904 14.0693 59.0253 13.9615 58.4081 13.7398C57.791 13.5181 57.2577 13.2065 56.8083 12.793C56.3589 12.3856 56.0113 11.8942 55.7537 11.325C55.502 10.7557 55.3702 10.1206 55.3702 9.42552L55.3582 9.43151ZM58.522 9.46147C58.522 9.74908 58.5759 10.0127 58.6778 10.2464C58.7856 10.4861 58.9234 10.6898 59.0912 10.8696C59.265 11.0494 59.4687 11.1872 59.7024 11.283C59.9421 11.3849 60.1938 11.4328 60.4574 11.4328C60.7211 11.4328 60.9727 11.3849 61.2124 11.283C61.4521 11.1812 61.6558 11.0434 61.8236 10.8696C61.9973 10.6958 62.1352 10.4861 62.237 10.2464C62.3389 10.0067 62.3928 9.74908 62.3928 9.47345C62.3928 9.19782 62.3389 8.95814 62.237 8.71846C62.1292 8.47878 61.9914 8.27505 61.8236 8.09529C61.6498 7.92152 61.4461 7.77771 61.2124 7.68184C60.9727 7.57998 60.7211 7.53204 60.4574 7.53204C60.1938 7.53204 59.9421 7.57998 59.7024 7.68184C59.4627 7.7837 59.259 7.92152 59.0912 8.09529C58.9234 8.26906 58.7796 8.47878 58.6778 8.70647C58.5699 8.94016 58.522 9.18584 58.522 9.44948V9.46147Z" fill="#F8F8F8"/>
<path d="M71.7463 0H74.7603V13.7577H71.7463V12.8109C71.1052 13.6198 70.2364 14.0213 69.1458 14.0213C68.5286 14.0213 67.9594 13.9075 67.4381 13.6738C66.9168 13.4401 66.4674 13.1225 66.0779 12.715C65.6884 12.3076 65.3888 11.8282 65.1731 11.271C64.9574 10.7137 64.8495 10.1205 64.8495 9.47936C64.8495 8.87417 64.9514 8.29294 65.1551 7.74767C65.3589 7.2024 65.6525 6.72304 66.024 6.31558C66.4015 5.90812 66.8509 5.58455 67.3722 5.34487C67.8995 5.10519 68.4747 4.99134 69.1039 4.99134C70.1645 4.99134 71.0453 5.36285 71.7404 6.09987V0H71.7463ZM67.9714 9.47936C67.9714 9.75499 68.0193 10.0126 68.1212 10.2523C68.223 10.492 68.3549 10.6957 68.5286 10.8755C68.7024 11.0553 68.9061 11.1931 69.1398 11.2889C69.3795 11.3908 69.6372 11.4387 69.9128 11.4387C70.1884 11.4387 70.4281 11.3908 70.6678 11.2889C70.9075 11.1871 71.1112 11.0493 71.279 10.8755C71.4527 10.7017 71.5906 10.492 71.6924 10.2643C71.7943 10.0366 71.8482 9.78495 71.8482 9.5213C71.8482 9.25766 71.7943 9.00599 71.6924 8.76631C71.5906 8.52663 71.4467 8.3229 71.279 8.14314C71.1052 7.96937 70.9015 7.82557 70.6678 7.72969C70.4281 7.62783 70.1764 7.57989 69.9128 7.57989C69.6491 7.57989 69.3975 7.62783 69.1578 7.72969C68.9181 7.83156 68.7144 7.96937 68.5466 8.14314C68.3728 8.3229 68.235 8.52064 68.1332 8.74833C68.0253 8.97603 67.9774 9.2217 67.9774 9.48535L67.9714 9.47936Z" fill="#F8F8F8"/>
<path d="M81.3755 5.25535H84.3895V13.758H81.3755V12.8113C80.7344 13.6202 79.8655 14.0217 78.775 14.0217C78.1578 14.0217 77.5886 13.9078 77.0673 13.6801C76.546 13.4524 76.0966 13.1348 75.7071 12.7274C75.3176 12.3199 75.018 11.8406 74.8023 11.2833C74.5866 10.732 74.4787 10.1269 74.4787 9.47971C74.4787 8.87452 74.5806 8.2933 74.7963 7.74802C75.006 7.20275 75.2996 6.72339 75.6771 6.31593C76.0546 5.90848 76.498 5.58491 77.0193 5.34523C77.5406 5.10555 78.1159 4.9917 78.745 4.9917C79.8056 4.9917 80.6865 5.3632 81.3815 6.10022V5.25535H81.3755ZM77.5946 9.47971C77.5946 9.75535 77.6425 10.013 77.7444 10.2527C77.8462 10.4924 77.9781 10.6961 78.1518 10.8759C78.3256 11.0556 78.5293 11.1934 78.763 11.2893C79.0027 11.3912 79.2604 11.4391 79.536 11.4391C79.8116 11.4391 80.0513 11.3912 80.291 11.2893C80.5307 11.1874 80.7344 11.0496 80.9022 10.8759C81.0759 10.7021 81.2138 10.4924 81.3156 10.2647C81.4175 10.037 81.4714 9.78531 81.4714 9.52166C81.4714 9.25801 81.4175 9.00635 81.3156 8.76667C81.2138 8.52699 81.0699 8.32326 80.9022 8.1435C80.7284 7.96973 80.5247 7.82592 80.291 7.73005C80.0513 7.62818 79.7996 7.58025 79.536 7.58025C79.2723 7.58025 79.0027 7.62818 78.763 7.73005C78.5233 7.83191 78.3196 7.96973 78.1518 8.1435C77.9781 8.32326 77.8462 8.52099 77.7444 8.74869C77.6425 8.97639 77.5946 9.22206 77.5946 9.48571V9.47971Z" fill="#F8F8F8"/>
<path d="M87.7869 12.5951L83.6764 5.25488H87.1578L89.4288 9.61707L91.6338 5.25488H95.0792L88.2483 17.9999H84.8808L87.781 12.5951H87.7869Z" fill="#F8F8F8"/>
<path d="M92.7963 12.1881C92.7963 11.9724 92.8382 11.7686 92.9161 11.5769C92.994 11.3851 93.1079 11.2174 93.2517 11.0736C93.3955 10.9297 93.5633 10.8159 93.755 10.738C93.9468 10.6601 94.1505 10.6182 94.3662 10.6182C94.5819 10.6182 94.7856 10.6601 94.9774 10.738C95.1691 10.8159 95.3369 10.9297 95.4807 11.0736C95.6245 11.2174 95.7384 11.3851 95.8163 11.5769C95.8942 11.7686 95.9361 11.9724 95.9361 12.1881C95.9361 12.4038 95.8942 12.6075 95.8163 12.7993C95.7384 12.991 95.6245 13.1588 95.4807 13.3026C95.3369 13.4464 95.1691 13.5602 94.9774 13.6381C94.7856 13.716 94.5819 13.758 94.3662 13.758C94.1505 13.758 93.9468 13.716 93.755 13.6381C93.5633 13.5602 93.3955 13.4464 93.2517 13.3026C93.1079 13.1588 92.994 12.991 92.9161 12.7993C92.8382 12.6075 92.7963 12.4038 92.7963 12.1881Z" fill="#F8F8F8"/>
</g>
<defs>
<clipPath id="clip0_97_2567">
<rect width="95.8722" height="18" fill="white" transform="translate(0.0639191)"/>
</clipPath>
</defs>
</svg>
