<svg width="19" height="17" viewBox="0 0 19 17" fill="none" xmlns="http://www.w3.org/2000/svg">
<rect width="19" height="17" fill="#747474"/>
<g id="Update/Edit Assessment Screens">
<path d="M-15444 -6342C-15444 -6343.1 -15443.1 -6344 -15442 -6344H3754C3755.1 -6344 3756 -6343.1 3756 -6342V3518C3756 3519.1 3755.11 3520 3754 3520H-15442C-15443.1 3520 -15444 3519.1 -15444 3518V-6342Z" fill="#444444"/>
<path d="M-15442 -6344V-6343H3754V-6344V-6345H-15442V-6344ZM3756 -6342H3755V3518H3756H3757V-6342H3756ZM3754 3520V3519H-15442V3520V3521H3754V3520ZM-15444 3518H-15443V-6342H-15444H-15445V3518H-15444ZM-15442 3520V3519C-15442.6 3519 -15443 3518.55 -15443 3518H-15444H-15445C-15445 3519.66 -15443.7 3521 -15442 3521V3520ZM3756 3518H3755C3755 3518.55 3754.55 3519 3754 3519V3520V3521C3755.66 3521 3757 3519.66 3757 3518H3756ZM3754 -6344V-6343C3754.55 -6343 3755 -6342.55 3755 -6342H3756H3757C3757 -6343.66 3755.66 -6345 3754 -6345V-6344ZM-15442 -6344V-6345C-15443.7 -6345 -15445 -6343.66 -15445 -6342H-15444H-15443C-15443 -6342.55 -15442.6 -6343 -15442 -6343V-6344Z" fill="white" fill-opacity="0.1"/>
<g id="Growth Plan - Example (AdWords)" clip-path="url(#clip0_84_8234)">
<rect width="1440" height="948" transform="translate(-1104 -104)" fill="#F1F2F2"/>
<g id="submenu v2">
<g id="Frame 80">
<g id="btn-preview">
<path d="M-8.5 -3C-8.5 -6.31371 -5.81371 -9 -2.5 -9H146.5C149.814 -9 152.5 -6.31371 152.5 -3V20C152.5 23.3137 149.814 26 146.5 26H-2.5C-5.81371 26 -8.5 23.3137 -8.5 20V-3Z" fill="#F2F2F2"/>
<g id="Frame 68">
<path id="Vector" d="M2.73077 1V10.375C2.73077 10.8723 2.92527 11.3492 3.2715 11.7008C3.61772 12.0525 4.08729 12.25 4.57692 12.25H6.42308M2.73077 1H1.5M2.73077 1H16.2692M6.42308 12.25H12.5769M6.42308 12.25L5.60256 14.75M16.2692 1H17.5M16.2692 1V10.375C16.2692 10.8723 16.0747 11.3492 15.7285 11.7008C15.3823 12.0525 14.9127 12.25 14.4231 12.25H12.5769M12.5769 12.25L13.3974 14.75M5.60256 14.75H13.3974M5.60256 14.75L5.19231 16M13.3974 14.75L13.8077 16M5.80769 8.5L8.26923 6L10.0317 7.79C10.8598 6.58275 11.9387 5.57485 13.1923 4.8375" stroke="#1E1E1E" stroke-width="1.5" stroke-linecap="round" stroke-linejoin="round"/>
</g>
</g>
</g>
</g>
</g>
</g>
<defs>
<clipPath id="clip0_84_8234">
<rect width="1440" height="948" fill="white" transform="translate(-1104 -104)"/>
</clipPath>
</defs>
</svg>
